<svg height="400" width="1140" xmlns="http://www.w3.org/2000/svg" style="font-family:&quot;Lucida Grande&quot;, &quot;Lucida Sans Unicode&quot;, Arial, Helvetica, sans-serif;font-size:12px;" version="1.1"><desc>Created with Highcharts 4.0.4</desc><defs><clipPath id="highcharts-1"><rect height="270" width="1062" y="0" x="0"></rect></clipPath><linearGradient id="highcharts-4" y2="1" x2="0" y1="0" x1="0"><stop stop-opacity="1" stop-color="#FEFEFE" offset="0"></stop><stop stop-opacity="1" stop-color="#F6F6F6" offset="1"></stop></linearGradient><linearGradient id="highcharts-5" y2="1" x2="0" y1="0" x1="0"><stop stop-opacity="1" stop-color="#FFF" offset="0"></stop><stop stop-opacity="1" stop-color="#ACF" offset="1"></stop></linearGradient></defs><rect class=" highcharts-background" fill="#FFFFFF" strokeWidth="0" height="400" width="1140" y="0" x="0"></rect><path d="M 0 0" fill="rgba(227,68,71,0.25)"></path><g zIndex="1" class="highcharts-grid"></g><g zIndex="1" class="highcharts-grid"><path opacity="1" zIndex="1" stroke-width="1" stroke="#C0C0C0" d="M 68 218.5 L 1130 218.5" fill="none"></path><path opacity="1" zIndex="1" stroke-width="1" stroke="#C0C0C0" d="M 68 326.5 L 1130 326.5" fill="none"></path><path opacity="1" zIndex="1" stroke-width="1" stroke="#C0C0C0" d="M 68 55.5 L 1130 55.5" fill="none"></path><path opacity="1" zIndex="1" stroke-width="1" stroke="#C0C0C0" d="M 68 110.5 L 1130 110.5" fill="none"></path><path opacity="1" zIndex="1" stroke-width="1" stroke="#C0C0C0" d="M 68 164.5 L 1130 164.5" fill="none"></path><path opacity="1" zIndex="1" stroke-width="1" stroke="#C0C0C0" d="M 68 272.5 L 1130 272.5" fill="none"></path></g><g zIndex="2" class="highcharts-axis"><path opacity="1" stroke-width="1" stroke="#C0D0E0" d="M 800.5 326 L 800.5 336" fill="none"></path><path visibility="visible" zIndex="7" stroke-width="1" stroke="#C0D0E0" d="M 68 326.5 L 1130 326.5" fill="none"></path></g><g zIndex="2" class="highcharts-axis"><text y="191" visibility="visible" style="color:#707070;fill:#707070;" class=" highcharts-yaxis-title" transform="translate(0,0) rotate(270 24.633333206176758 191)" text-anchor="middle" zIndex="7" x="24.633333206176758">Seconds</text></g><path visibility="hidden" zIndex="2" stroke-width="1" stroke="#C0C0C0" d="M 75.5 56 L 75.5 326" fill="none"></path><g zIndex="3" class="highcharts-series-group"><g clip-path="url(#highcharts-1)" transform="translate(68,56) scale(1 1)" zIndex="0.1" visibility="visible" class="highcharts-series"><path stroke-linecap="round" stroke-linejoin="round" zIndex="1" stroke-width="2" stroke="#e34447" d="M 0.8792017620278907 40.392000000000024 L 8.345196798678684 37.69200000000001 L 15.811191835329476 37.26000000000002 L 23.27718687198027 41.903999999999996 L 30.743181908631065 38.664000000000016 L 38.209176945281854 40.607999999999976 L 45.67517198193265 38.879999999999995 L 53.14116701858344 38.879999999999995 L 60.607162055234234 39.31199999999998 L 68.07315709188502 40.28400000000002 L 75.53915212853582 39.420000000000016 L 83.0051471651866 38.55600000000001 L 90.4711422018374 37.69200000000001 L 97.93713723848819 37.367999999999995 L 105.40313227513899 36.072 L 112.86912731178978 36.50400000000002 L 120.33512234844056 38.77199999999999 L 127.80111738509137 37.15199999999999 L 135.26711242174215 38.77199999999999 L 142.73310745839296 38.44799999999998 L 150.19910249504375 39.20400000000001 L 157.66509753169456 39.635999999999996 L 165.13109256834534 189.108 L 172.59708760499615 187.812 L 180.06308264164693 188.352 L 187.5290776782977 188.352 L 194.99507271494852 189 L 202.4610677515993 188.02800000000002 L 209.9270627882501 187.488 L 217.3930578249009 187.704 L 224.85905286155167 187.596 L 232.32504789820248 187.38 L 239.79104293485327 188.244 L 247.25703797150408 187.164 L 254.72303300815486 187.164 L 262.1890280448057 187.92000000000002 L 269.6550230814565 187.488 L 277.12101811810726 187.164 L 284.58701315475804 186.732 L 292.0530081914089 187.488 L 299.51900322805966 186.94799999999998 L 306.98499826471044 187.596 L 314.4509933013612 187.488 L 321.916988338012 187.488 L 329.38298337466284 187.704 L 336.8489784113136 187.272 L 344.3149734479644 188.02800000000002 L 351.7809684846152 187.92000000000002 L 359.24696352126597 188.136 L 366.7129585579168 187.164 L 374.1789535945676 187.704 L 381.64494863121837 186.84 L 389.11094366786915 188.02800000000002 L 396.57693870451993 187.38 L 404.04293374117077 187.38 L 411.50892877782155 187.596 L 418.97492381447233 188.02800000000002 L 426.4409188511231 188.45999999999998 L 433.9069138877739 188.02800000000002 L 441.37290892442473 188.56799999999998 L 448.8389039610755 188.45999999999998 L 456.3048989977263 188.56799999999998 L 463.7708940343771 187.596 L 471.23688907102786 187.596 L 478.7028841076787 187.05599999999998 L 486.1688791443295 186.732 L 493.63487418098026 187.596 L 501.10086921763104 186.732 L 508.5668642542818 186.192 L 516.0328592909326 187.05599999999998 L 523.4988543275834 187.812 L 530.9648493642343 189.216 L 538.430844400885 189 L 545.8968394375358 186.84 L 553.3628344741866 187.596 L 560.8288295108374 187.596 L 568.2948245474882 188.136 L 575.760819584139 188.352 L 583.2268146207898 188.676 L 590.6928096574405 188.45999999999998 L 598.1588046940914 187.812 L 605.6247997307422 188.02800000000002 L 613.0907947673929 188.244 L 620.5567898040438 187.272 L 628.0227848406945 189.756 L 635.4887798773453 188.892 L 642.9547749139962 190.07999999999998 L 650.4207699506469 189.324 L 657.8867649872977 189.108 L 665.3527600239485 189.756 L 672.8187550605993 189 L 680.2847500972501 189.756 L 687.7507451339009 189.97199999999998 L 695.2167401705517 188.892 L 702.6827352072024 189.648 L 710.1487302438533 189.97199999999998 L 717.6147252805041 189.756 L 725.0807203171548 190.188 L 732.5467153538057 188.352 L 740.0127103904564 188.56799999999998 L 747.4787054271072 189.756 L 754.9447004637581 188.45999999999998 L 762.4106955004088 189.108 L 769.8766905370596 189.324 L 777.3426855737104 189.108 L 784.8086806103612 188.56799999999998 L 792.274675647012 188.244 L 799.7406706836628 190.404 L 807.2066657203136 191.05200000000002 L 814.6726607569643 191.484 L 822.1386557936152 191.376 L 829.604650830266 190.62 L 837.0706458669167 191.05200000000002 L 844.5366409035676 190.728 L 852.0026359402183 190.728 L 859.4686309768691 192.024 L 866.93462601352 191.7 L 874.4006210501707 191.16 L 881.8666160868215 191.484 L 889.3326111234722 191.808 L 896.7986061601231 192.024 L 904.2646011967739 190.836 L 911.7305962334246 191.16 L 919.1965912700755 191.05200000000002 L 926.6625863067262 190.404 L 934.128581343377 190.836 L 941.5945763800279 190.728 L 949.0605714166786 191.484 L 956.5265664533295 191.16 L 963.9925614899801 190.836 L 971.4585565266309 191.268 L 978.9245515632817 191.05200000000002 L 986.3905465999325 191.59199999999998 L 993.8565416365833 190.62 L 1001.322536673234 197.208 L 1008.7885317098849 196.88400000000001 L 1016.2545267465357 197.53199999999998 L 1023.7205217831864 197.856 L 1031.1865168198372 197.748 L 1038.652511856488 197.42399999999998 L 1046.1185068931388 197.964 L 1053.5845019297897 197.42399999999998 L 1061.0504969664405 197.1" fill="none"></path><path style="" class=" highcharts-tracker" zIndex="2" stroke-width="22" stroke="rgba(192,192,192,0.0001)" visibility="visible" stroke-linejoin="round" d="M -9.12079823797211 40.392000000000024 L 0.8792017620278907 40.392000000000024 L 8.345196798678684 37.69200000000001 L 15.811191835329476 37.26000000000002 L 23.27718687198027 41.903999999999996 L 30.743181908631065 38.664000000000016 L 38.209176945281854 40.607999999999976 L 45.67517198193265 38.879999999999995 L 53.14116701858344 38.879999999999995 L 60.607162055234234 39.31199999999998 L 68.07315709188502 40.28400000000002 L 75.53915212853582 39.420000000000016 L 83.0051471651866 38.55600000000001 L 90.4711422018374 37.69200000000001 L 97.93713723848819 37.367999999999995 L 105.40313227513899 36.072 L 112.86912731178978 36.50400000000002 L 120.33512234844056 38.77199999999999 L 127.80111738509137 37.15199999999999 L 135.26711242174215 38.77199999999999 L 142.73310745839296 38.44799999999998 L 150.19910249504375 39.20400000000001 L 157.66509753169456 39.635999999999996 L 165.13109256834534 189.108 L 172.59708760499615 187.812 L 180.06308264164693 188.352 L 187.5290776782977 188.352 L 194.99507271494852 189 L 202.4610677515993 188.02800000000002 L 209.9270627882501 187.488 L 217.3930578249009 187.704 L 224.85905286155167 187.596 L 232.32504789820248 187.38 L 239.79104293485327 188.244 L 247.25703797150408 187.164 L 254.72303300815486 187.164 L 262.1890280448057 187.92000000000002 L 269.6550230814565 187.488 L 277.12101811810726 187.164 L 284.58701315475804 186.732 L 292.0530081914089 187.488 L 299.51900322805966 186.94799999999998 L 306.98499826471044 187.596 L 314.4509933013612 187.488 L 321.916988338012 187.488 L 329.38298337466284 187.704 L 336.8489784113136 187.272 L 344.3149734479644 188.02800000000002 L 351.7809684846152 187.92000000000002 L 359.24696352126597 188.136 L 366.7129585579168 187.164 L 374.1789535945676 187.704 L 381.64494863121837 186.84 L 389.11094366786915 188.02800000000002 L 396.57693870451993 187.38 L 404.04293374117077 187.38 L 411.50892877782155 187.596 L 418.97492381447233 188.02800000000002 L 426.4409188511231 188.45999999999998 L 433.9069138877739 188.02800000000002 L 441.37290892442473 188.56799999999998 L 448.8389039610755 188.45999999999998 L 456.3048989977263 188.56799999999998 L 463.7708940343771 187.596 L 471.23688907102786 187.596 L 478.7028841076787 187.05599999999998 L 486.1688791443295 186.732 L 493.63487418098026 187.596 L 501.10086921763104 186.732 L 508.5668642542818 186.192 L 516.0328592909326 187.05599999999998 L 523.4988543275834 187.812 L 530.9648493642343 189.216 L 538.430844400885 189 L 545.8968394375358 186.84 L 553.3628344741866 187.596 L 560.8288295108374 187.596 L 568.2948245474882 188.136 L 575.760819584139 188.352 L 583.2268146207898 188.676 L 590.6928096574405 188.45999999999998 L 598.1588046940914 187.812 L 605.6247997307422 188.02800000000002 L 613.0907947673929 188.244 L 620.5567898040438 187.272 L 628.0227848406945 189.756 L 635.4887798773453 188.892 L 642.9547749139962 190.07999999999998 L 650.4207699506469 189.324 L 657.8867649872977 189.108 L 665.3527600239485 189.756 L 672.8187550605993 189 L 680.2847500972501 189.756 L 687.7507451339009 189.97199999999998 L 695.2167401705517 188.892 L 702.6827352072024 189.648 L 710.1487302438533 189.97199999999998 L 717.6147252805041 189.756 L 725.0807203171548 190.188 L 732.5467153538057 188.352 L 740.0127103904564 188.56799999999998 L 747.4787054271072 189.756 L 754.9447004637581 188.45999999999998 L 762.4106955004088 189.108 L 769.8766905370596 189.324 L 777.3426855737104 189.108 L 784.8086806103612 188.56799999999998 L 792.274675647012 188.244 L 799.7406706836628 190.404 L 807.2066657203136 191.05200000000002 L 814.6726607569643 191.484 L 822.1386557936152 191.376 L 829.604650830266 190.62 L 837.0706458669167 191.05200000000002 L 844.5366409035676 190.728 L 852.0026359402183 190.728 L 859.4686309768691 192.024 L 866.93462601352 191.7 L 874.4006210501707 191.16 L 881.8666160868215 191.484 L 889.3326111234722 191.808 L 896.7986061601231 192.024 L 904.2646011967739 190.836 L 911.7305962334246 191.16 L 919.1965912700755 191.05200000000002 L 926.6625863067262 190.404 L 934.128581343377 190.836 L 941.5945763800279 190.728 L 949.0605714166786 191.484 L 956.5265664533295 191.16 L 963.9925614899801 190.836 L 971.4585565266309 191.268 L 978.9245515632817 191.05200000000002 L 986.3905465999325 191.59199999999998 L 993.8565416365833 190.62 L 1001.322536673234 197.208 L 1008.7885317098849 196.88400000000001 L 1016.2545267465357 197.53199999999998 L 1023.7205217831864 197.856 L 1031.1865168198372 197.748 L 1038.652511856488 197.42399999999998 L 1046.1185068931388 197.964 L 1053.5845019297897 197.42399999999998 L 1061.0504969664405 197.1 L 1071.0504969664405 197.1" fill="none"></path></g><g clip-path="none" style="" transform="translate(68,56) scale(1 1)" zIndex="0.1" visibility="visible" class="highcharts-markers highcharts-tracker"><path visibility="hidden" stroke-width="1" stroke="#FFFFFF" d="M 8.345196798678684 31.692000000000007 C 16.337196798678683 31.692000000000007 16.337196798678683 43.69200000000001 8.345196798678684 43.69200000000001 C 0.3531967986786837 43.69200000000001 0.3531967986786837 31.692000000000007 8.345196798678684 31.692000000000007 Z" fill="#e34447"></path></g></g><text y="25" style="color:#555555;fill:#555555;width:1076px;" zIndex="4" class="highcharts-subtitle" text-anchor="middle" x="570"><tspan>Click and drag in the plot area to zoom in</tspan><tspan dy="16" x="570">Click on a point to view and compare commits on GitHub</tspan></text><g transform="translate(483,367)" zIndex="7" class="highcharts-legend"><g zIndex="1"><g><g transform="translate(8,3)" zIndex="1" class="highcharts-legend-item"><path stroke-width="2" stroke="#e34447" d="M 0 11 L 16 11" fill="none"></path><path d="M 8 7 C 13.328 7 13.328 15 8 15 C 2.6719999999999997 15 2.6719999999999997 7 8 7 Z" fill="#e34447"></path><text y="15" zIndex="2" text-anchor="start" style="color:#333333;font-size:12px;font-weight:bold;cursor:pointer;fill:#333333;" x="21">vm_symbol_block_pass</text></g></g></g></g><g zIndex="7" class="highcharts-axis-labels highcharts-xaxis-labels"><text opacity="1" y="346" style="width:1042px;color:#606060;cursor:default;font-size:11px;fill:#606060;" text-anchor="middle" x="800.5467153538057">2015-10-09</text></g><g zIndex="7" class="highcharts-axis-labels highcharts-yaxis-labels"><text opacity="1" y="331.25" style="width:356px;color:#606060;cursor:default;font-size:11px;fill:#606060;" text-anchor="end" x="53">0</text><text opacity="1" y="223.25" style="width:356px;color:#606060;cursor:default;font-size:11px;fill:#606060;" text-anchor="end" x="53">1</text><text opacity="1" y="277.25" style="width:356px;color:#606060;cursor:default;font-size:11px;fill:#606060;" text-anchor="end" x="53">0.5</text><text opacity="1" y="169.25" style="width:356px;color:#606060;cursor:default;font-size:11px;fill:#606060;" text-anchor="end" x="53">1.5</text><text opacity="1" y="115.25" style="width:356px;color:#606060;cursor:default;font-size:11px;fill:#606060;" text-anchor="end" x="53">2</text><text opacity="1" y="61.25" style="width:356px;color:#606060;cursor:default;font-size:11px;fill:#606060;" text-anchor="end" x="53">2.5</text></g><g opacity="0" transform="translate(825,-9999)" style="cursor:default;padding:0;white-space:nowrap;" zIndex="8" class="highcharts-tooltip"><path stroke-width="1" stroke="#e34447" d="M 0 0 L 295 0 295 91 0 91 Z" fill="rgba(249, 249, 249, .85)"></path></g><text y="395" style="cursor:pointer;color:#909090;font-size:9px;fill:#909090;" zIndex="8" text-anchor="end" x="1130">Highcharts.com</text><g transform="translate(1046,66)" style="cursor:default;" zIndex="20" class="highcharts-button"><title>Reset zoom level 1:1</title><rect ry="2" rx="2" stroke-width="1" stroke="#CCCCCC" fill="url(#highcharts-4)" strokeWidth="1" height="25" width="79" y="0.5" x="-4.5"></rect><text y="18" style="color:black;fill:black;" zIndex="1" x="0"><tspan>Reset zoom</tspan></text></g></svg>
